PathFileType	4	(X/Y/Z)	14_coords_data.trc
DataRate	CameraRate	NumFrames	NumMarkers	Units	OrigDataRate	OrigDataStartFrame	OrigNumFrames
30.0	30.0	5	21	m	30.0	10	68
Frame#	Time	THUMB_TIP	THUMB_IP	THUMB_MCP	THUMB_CMC	INDEX_TIP	INDEX_DIP	INDEX_PIP	INDEX_MCP	MIDDLE_TIP	MIDDLE_DIP	MIDDLE_PIP	MIDDLE_MCP	RING_TIP	RING_DIP	RING_PIP	RING_MCP	PINKY_TIP	PINKY_DIP	PINKY_PIP	PINKY_MCP	WRIST
X1	Y1	Z1	X2	Y2	Z2	X3	Y3	Z3	X4	Y4	Z4	X5	Y5	Z5	X6	Y6	Z6	X7	Y7	Z7	X8	Y8	Z8	X9	Y9	Z9	X10	Y10	Z10	X11	Y11	Z11	X12	Y12	Z12	X13	Y13	Z13	X14	Y14	Z14	X15	Y15	Z15	X16	Y16	Z16	X17	Y17	Z17	X18	Y18	Z18	X19	Y19	Z19	X20	Y20	Z20	X21	Y21	Z21
9	0.3	0.04641809844970703	0.03162470054626465	0.9424949951171875	0.026569900512695314	0.02904750061035156	0.9592509765625	0.010977899551391602	0.02338640022277832	0.9834979858398437	-0.013970499992370605	0.036344600677490235	0.9978889770507813	0.04361909866333008	0.03471179962158203	0.911385986328125	0.02964419937133789	0.01947719955444336	0.9152100219726562	0.012835800170898437	0.005593299865722656	0.9245369873046875	-0.010505900382995606	-0.0041518001556396485	0.952760009765625	0.040634300231933596	0.05462160110473633	0.9050180053710938	0.0232731990814209	0.04167259979248047	0.9077620239257812	0.001227399945259094	0.02562579917907715	0.9147960205078125	-0.02904829978942871	0.00971833038330078	0.940916015625	0.028442100524902345	0.07046080017089844	0.9139180297851562	0.010363300323486329	0.0593838005065918	0.914322998046875	-0.011959799766540527	0.04587519836425781	0.91806201171875	-0.0394818000793457	0.029543899536132814	0.9377449951171875	0.002468039989471435	0.08182209777832031	0.9212680053710938	-0.012918100357055665	0.07256510162353516	0.9233170166015625	-0.02790880012512207	0.06286380004882812	0.9281530151367188	-0.046308799743652346	0.048425098419189454	0.9424450073242188	-0.048972599029541014	0.03863180160522461	1.012489990234375
10	0.3333333333333333	0.04624850082397461	0.031518400192260744	0.942510986328125	0.026452999114990234	0.02921980094909668	0.959344970703125	0.010927000045776368	0.023489200592041015	0.983489990234375	-0.013732600212097167	0.0363385009765625	0.9978159790039063	0.04349879837036133	0.03475099945068359	0.9114229736328125	0.02953339958190918	0.019535400390625	0.9151699829101563	0.012697699546813965	0.005637819766998291	0.9247030029296875	-0.010583800315856933	-0.004050260066986084	0.95277099609375	0.04055419921875	0.054733600616455075	0.9051580200195313	0.02318639945983887	0.04178269958496094	0.9077509765625	0.001164950013160705	0.025720300674438475	0.9147360229492187	-0.02909659957885742	0.009746899604797363	0.9408800048828125	0.02841670036315918	0.07054930114746094	0.9140139770507812	0.010314900398254395	0.05949620056152344	0.9143690185546876	-0.01201039981842041	0.045990898132324216	0.9180709838867187	-0.03950019836425781	0.02964069938659668	0.9376920166015625	0.002471299886703491	0.08194229888916016	0.921343994140625	-0.012953599929809571	0.07267739868164062	0.9233359985351562	-0.02796030044555664	0.06297600173950195	0.9281400146484375	-0.04637720108032226	0.04853929901123047	0.942260009765625	-0.04888550186157226	0.03870009994506836	1.0121699829101563
11	0.36666666666666664	0.046145198822021484	0.03132729911804199	0.9422869873046875	0.02644260025024414	0.029086700439453127	0.9591279907226562	0.010937199592590333	0.02347760009765625	0.9832059936523437	-0.013922900199890136	0.036671001434326174	0.9975150146484375	0.043370899200439454	0.034976398468017575	0.9112949829101562	0.029323699951171876	0.01976729965209961	0.9150689697265625	0.012524100303649902	0.005872499942779541	0.9244180297851563	-0.010738300323486329	-0.003853650093078613	0.9526699829101563	0.040458999633789065	0.054964298248291014	0.9049660034179687	0.02306730079650879	0.04205500030517578	0.9077269897460938	0.001013120055198669	0.025993000030517577	0.9147319946289062	-0.02927989959716797	0.010051300048828125	0.9408930053710938	0.028404699325561524	0.07078559875488281	0.9141160278320313	0.010181699752807617	0.059705501556396486	0.9142739868164063	-0.012113499641418456	0.04624620056152344	0.918	-0.0396255989074707	0.02991699981689453	0.937697998046875	0.002446990013122558	0.08214109802246093	0.921198974609375	-0.013002300262451172	0.07296949768066406	0.9233389892578125	-0.027962499618530274	0.06327149963378906	0.9281649780273438	-0.046386699676513675	0.04880239868164062	0.9420859985351563	-0.048948501586914064	0.038859500885009765	1.0124600219726563
12	0.4	0.04643190002441406	0.031326499938964844	0.9415689697265625	0.026396799087524413	0.029496599197387695	0.95902197265625	0.010948399543762206	0.02384519958496094	0.9832119750976562	-0.01384309959411621	0.03680860137939453	0.997791015625	0.043338001251220705	0.03547589874267578	0.9111710205078125	0.029295799255371093	0.02022489929199219	0.9149910278320312	0.012512800216674804	0.006295680046081543	0.92427197265625	-0.010798000335693359	-0.0034900400638580324	0.9525089721679687	0.04046289825439453	0.05547769927978516	0.9048909912109375	0.023062900543212892	0.04252000045776367	0.9076849975585938	0.0010349800586700439	0.026450599670410156	0.914614013671875	-0.029270999908447264	0.010409899711608887	0.9407630004882812	0.02828260040283203	0.07124770355224609	0.9139609985351562	0.010171299934387206	0.06017359924316406	0.9142420043945313	-0.012068599700927734	0.046693199157714846	0.9179520263671875	-0.039646499633789065	0.030329599380493164	0.9376519775390625	0.002395879983901977	0.0825916976928711	0.9212880249023437	-0.013014599800109864	0.07336799621582031	0.9233300170898437	-0.027985300064086914	0.06366469955444336	0.9280640258789062	-0.04643069839477539	0.049185901641845706	0.9421900024414063	-0.048964298248291016	0.03922150039672852	1.0125
13	0.43333333333333335	0.04616329956054688	0.03197990036010742	0.9421060180664063	0.026515199661254884	0.02957029914855957	0.9589639892578125	0.010888400077819825	0.024066900253295897	0.983385986328125	-0.013891799926757813	0.03699259948730469	0.9977470092773437	0.04347420120239258	0.03574620056152344	0.911239013671875	0.029425699234008788	0.020514799118041993	0.914989013671875	0.012599100112915039	0.006583940029144287	0.9242360229492188	-0.010739399909973144	-0.003248440027236938	0.9523759765625	0.040574100494384764	0.055765499114990236	0.9050579833984375	0.023171199798583984	0.042818698883056644	0.9078489990234375	0.0011248300075531	0.026721799850463867	0.9146500244140625	-0.029162099838256836	0.010661100387573242	0.9405349731445313	0.028425500869750975	0.0715260009765625	0.9140499877929688	0.010323399543762208	0.06050609970092773	0.9144710083007812	-0.012031200408935547	0.046977401733398434	0.9180070190429688	-0.03955149841308594	0.030624500274658205	0.9375430297851562	0.002564650058746338	0.08288159942626953	0.9214089965820312	-0.012855899810791016	0.0736436996459961	0.9233880004882813	-0.027852800369262694	0.06394039916992188	0.928114013671875	-0.046284400939941406	0.04949599838256836	0.9421060180664063	-0.04899290084838867	0.03956219863891602	1.012780029296875
